<svg width="1120" height="1120" viewBox="0 0 1120 1120" fill="none" xmlns="http://www.w3.org/2000/svg">
<g clip-path="url(#clip0_67_8729)">
<rect width="1120" height="1120" fill="#121112"/>
<g filter="url(#filter0_dii_67_8729)">
<path d="M310.081 648.821C310.093 648.821 310.103 648.814 310.108 648.804C322.644 624.844 332.007 606.911 341.37 588.819C406.61 464.055 471.69 339.29 537.247 214.684C544.073 201.668 551.851 188.811 560.899 177.223C599.947 127.698 660.583 127.381 698.045 178.334C718.997 206.747 736.141 238.336 752.808 269.765C841.064 435.959 928.843 602.312 1016.15 768.982C1039.16 812.792 1054.4 858.825 1045.35 909.937C1042.43 926.384 1036.03 942.057 1027.33 955.886C1003.54 993.719 976.943 962.705 990.432 920.096V920.096C1005.51 872 989.956 826.285 967.733 783.268C911.541 674.694 855.032 566.279 797.888 458.34C756.3 379.767 713.124 301.988 671.377 223.573C661.695 205.478 648.996 194.366 628.043 194.525C607.566 194.525 596.138 207.065 587.248 223.891C524.866 342.623 461.69 460.721 400.26 579.93C386.768 606.121 372.164 627.55 341.846 634.852C332.983 636.91 324.909 642.123 310.071 648.763C310.041 648.776 310.049 648.821 310.081 648.821V648.821Z" fill="white"/>
<path d="M310.081 648.821C310.093 648.821 310.103 648.814 310.108 648.804C322.644 624.844 332.007 606.911 341.37 588.819C406.61 464.055 471.69 339.29 537.247 214.684C544.073 201.668 551.851 188.811 560.899 177.223C599.947 127.698 660.583 127.381 698.045 178.334C718.997 206.747 736.141 238.336 752.808 269.765C841.064 435.959 928.843 602.312 1016.15 768.982C1039.16 812.792 1054.4 858.825 1045.35 909.937C1042.43 926.384 1036.03 942.057 1027.33 955.886C1003.54 993.719 976.943 962.705 990.432 920.096V920.096C1005.51 872 989.956 826.285 967.733 783.268C911.541 674.694 855.032 566.279 797.888 458.34C756.3 379.767 713.124 301.988 671.377 223.573C661.695 205.478 648.996 194.366 628.043 194.525C607.566 194.525 596.138 207.065 587.248 223.891C524.866 342.623 461.69 460.721 400.26 579.93C386.768 606.121 372.164 627.55 341.846 634.852C332.983 636.91 324.909 642.123 310.071 648.763C310.041 648.776 310.049 648.821 310.081 648.821V648.821Z" fill="url(#paint0_radial_67_8729)"/>
</g>
<g filter="url(#filter1_dii_67_8729)">
<path d="M157.852 1009.56C118.658 1000.22 149.812 963.855 190.098 963.269V963.269C234.226 962.634 271.369 945.967 307.084 921.205C351.371 890.569 394.864 856.6 443.754 835.33C542.645 792.313 639.314 808.663 729.633 865.807C748.364 877.712 765.983 891.363 783.762 904.697C805.667 920.887 827.413 922.157 844.556 907.554C860.589 893.903 863.763 872.315 851.382 848.822C775.825 705.327 701.379 561.356 623.123 419.289C607.271 390.342 605.305 367.978 621.59 344.506C625.708 338.571 635.255 338.325 638.679 344.685V344.685C722.967 504.371 807.572 664.056 890.907 824.377C900.748 843.425 908.685 866.601 907.891 887.395C905.351 951.047 839.001 987.079 778.682 958.825C760.904 950.412 744.872 937.555 728.998 925.491C612.171 836.917 489.628 838.822 375.34 931.046C358.038 945.015 341.212 959.618 323.275 972.635C274.703 1007.4 220.892 1022.79 161.684 1010.41C160.394 1010.14 159.116 1009.86 157.852 1009.56Z" fill="white"/>
<path d="M157.852 1009.56C118.658 1000.22 149.812 963.855 190.098 963.269V963.269C234.226 962.634 271.369 945.967 307.084 921.205C351.371 890.569 394.864 856.6 443.754 835.33C542.645 792.313 639.314 808.663 729.633 865.807C748.364 877.712 765.983 891.363 783.762 904.697C805.667 920.887 827.413 922.157 844.556 907.554C860.589 893.903 863.763 872.315 851.382 848.822C775.825 705.327 701.379 561.356 623.123 419.289C607.271 390.342 605.305 367.978 621.59 344.506C625.708 338.571 635.255 338.325 638.679 344.685V344.685C722.967 504.371 807.572 664.056 890.907 824.377C900.748 843.425 908.685 866.601 907.891 887.395C905.351 951.047 839.001 987.079 778.682 958.825C760.904 950.412 744.872 937.555 728.998 925.491C612.171 836.917 489.628 838.822 375.34 931.046C358.038 945.015 341.212 959.618 323.275 972.635C274.703 1007.4 220.892 1022.79 161.684 1010.41C160.394 1010.14 159.116 1009.86 157.852 1009.56Z" fill="url(#paint1_radial_67_8729)"/>
</g>
<g filter="url(#filter2_dii_67_8729)">
<path d="M705.823 756.284C550.264 697.394 416.134 728.823 292.639 822.952C275.496 835.968 258.67 849.461 240.892 861.366C207.875 883.271 163.113 882.953 134.064 861.524C106.445 841.206 93.5872 801.682 103.905 763.427C108.508 746.442 115.175 729.617 123.429 714.061C209.463 550.883 294.861 387.387 383.117 225.479C401.848 191.034 430.42 161.668 456.611 131.826V131.826C465.829 121.399 481.601 137.122 474.903 149.322C457.268 181.443 440.446 212.04 424.229 242.939C335.815 411.515 247.718 580.248 159.938 749.141C153.906 760.57 146.446 775.332 148.985 786.285C152.16 799.618 162.954 813.904 174.541 821.682C189.938 832.159 207.082 825.333 221.527 813.746C277.877 768.665 336.767 727.871 404.864 702.156C482.008 673.107 560.581 669.139 640.901 685.013C662.806 689.298 679.314 698.029 687.092 720.41C690.875 731.128 697.475 740.907 705.338 755.809C705.446 756.013 705.616 756.181 705.823 756.284V756.284Z" fill="white"/>
<path d="M705.823 756.284C550.264 697.394 416.134 728.823 292.639 822.952C275.496 835.968 258.67 849.461 240.892 861.366C207.875 883.271 163.113 882.953 134.064 861.524C106.445 841.206 93.5872 801.682 103.905 763.427C108.508 746.442 115.175 729.617 123.429 714.061C209.463 550.883 294.861 387.387 383.117 225.479C401.848 191.034 430.42 161.668 456.611 131.826V131.826C465.829 121.399 481.601 137.122 474.903 149.322C457.268 181.443 440.446 212.04 424.229 242.939C335.815 411.515 247.718 580.248 159.938 749.141C153.906 760.57 146.446 775.332 148.985 786.285C152.16 799.618 162.954 813.904 174.541 821.682C189.938 832.159 207.082 825.333 221.527 813.746C277.877 768.665 336.767 727.871 404.864 702.156C482.008 673.107 560.581 669.139 640.901 685.013C662.806 689.298 679.314 698.029 687.092 720.41C690.875 731.128 697.475 740.907 705.338 755.809C705.446 756.013 705.616 756.181 705.823 756.284V756.284Z" fill="url(#paint2_radial_67_8729)"/>
</g>
</g>
<defs>
<filter id="filter0_dii_67_8729" x="200.208" y="116.482" width="957.637" height="1052.52" filterUnits="userSpaceOnUse" color-interpolation-filters="sRGB">
<feFlood flood-opacity="0" result="BackgroundImageFix"/>
<feColorMatrix in="SourceAlpha" type="matrix" values="0 0 0 0 0 0 0 0 0 0 0 0 0 0 0 0 0 0 127 0" result="hardAlpha"/>
<feOffset dy="86.228"/>
<feGaussianBlur stdDeviation="54.9223"/>
<feComposite in2="hardAlpha" operator="out"/>
<feColorMatrix type="matrix" values="0 0 0 0 0 0 0 0 0 0 0 0 0 0 0 0 0 0 0.12 0"/>
<feBlend mode="normal" in2="BackgroundImageFix" result="effect1_dropShadow_67_8729"/>
<feBlend mode="normal" in="SourceGraphic" in2="effect1_dropShadow_67_8729" result="shape"/>
<feColorMatrix in="SourceAlpha" type="matrix" values="0 0 0 0 0 0 0 0 0 0 0 0 0 0 0 0 0 0 127 0" result="hardAlpha"/>
<feOffset/>
<feGaussianBlur stdDeviation="57.3102"/>
<feComposite in2="hardAlpha" operator="arithmetic" k2="-1" k3="1"/>
<feColorMatrix type="matrix" values="0 0 0 0 1 0 0 0 0 1 0 0 0 0 1 0 0 0 0.5 0"/>
<feBlend mode="normal" in2="shape" result="effect2_innerShadow_67_8729"/>
<feColorMatrix in="SourceAlpha" type="matrix" values="0 0 0 0 0 0 0 0 0 0 0 0 0 0 0 0 0 0 127 0" result="hardAlpha"/>
<feOffset dy="-21.9689"/>
<feGaussianBlur stdDeviation="8.23834"/>
<feComposite in2="hardAlpha" operator="arithmetic" k2="-1" k3="1"/>
<feColorMatrix type="matrix" values="0 0 0 0 0 0 0 0 0 0 0 0 0 0 0 0 0 0 0.15 0"/>
<feBlend mode="normal" in2="effect2_innerShadow_67_8729" result="effect3_innerShadow_67_8729"/>
</filter>
<filter id="filter1_dii_67_8729" x="29.9836" y="316.368" width="987.807" height="894.355" filterUnits="userSpaceOnUse" color-interpolation-filters="sRGB">
<feFlood flood-opacity="0" result="BackgroundImageFix"/>
<feColorMatrix in="SourceAlpha" type="matrix" values="0 0 0 0 0 0 0 0 0 0 0 0 0 0 0 0 0 0 127 0" result="hardAlpha"/>
<feOffset dy="86.228"/>
<feGaussianBlur stdDeviation="54.9223"/>
<feComposite in2="hardAlpha" operator="out"/>
<feColorMatrix type="matrix" values="0 0 0 0 0 0 0 0 0 0 0 0 0 0 0 0 0 0 0.12 0"/>
<feBlend mode="normal" in2="BackgroundImageFix" result="effect1_dropShadow_67_8729"/>
<feBlend mode="normal" in="SourceGraphic" in2="effect1_dropShadow_67_8729" result="shape"/>
<feColorMatrix in="SourceAlpha" type="matrix" values="0 0 0 0 0 0 0 0 0 0 0 0 0 0 0 0 0 0 127 0" result="hardAlpha"/>
<feOffset/>
<feGaussianBlur stdDeviation="57.3102"/>
<feComposite in2="hardAlpha" operator="arithmetic" k2="-1" k3="1"/>
<feColorMatrix type="matrix" values="0 0 0 0 1 0 0 0 0 1 0 0 0 0 1 0 0 0 0.5 0"/>
<feBlend mode="normal" in2="shape" result="effect2_innerShadow_67_8729"/>
<feColorMatrix in="SourceAlpha" type="matrix" values="0 0 0 0 0 0 0 0 0 0 0 0 0 0 0 0 0 0 127 0" result="hardAlpha"/>
<feOffset dy="-21.9689"/>
<feGaussianBlur stdDeviation="8.23834"/>
<feComposite in2="hardAlpha" operator="arithmetic" k2="-1" k3="1"/>
<feColorMatrix type="matrix" values="0 0 0 0 0 0 0 0 0 0 0 0 0 0 0 0 0 0 0.15 0"/>
<feBlend mode="normal" in2="effect2_innerShadow_67_8729" result="effect3_innerShadow_67_8729"/>
</filter>
<filter id="filter2_dii_67_8729" x="-9.48369" y="104.804" width="825.151" height="968.964" filterUnits="userSpaceOnUse" color-interpolation-filters="sRGB">
<feFlood flood-opacity="0" result="BackgroundImageFix"/>
<feColorMatrix in="SourceAlpha" type="matrix" values="0 0 0 0 0 0 0 0 0 0 0 0 0 0 0 0 0 0 127 0" result="hardAlpha"/>
<feOffset dy="86.228"/>
<feGaussianBlur stdDeviation="54.9223"/>
<feComposite in2="hardAlpha" operator="out"/>
<feColorMatrix type="matrix" values="0 0 0 0 0 0 0 0 0 0 0 0 0 0 0 0 0 0 0.12 0"/>
<feBlend mode="normal" in2="BackgroundImageFix" result="effect1_dropShadow_67_8729"/>
<feBlend mode="normal" in="SourceGraphic" in2="effect1_dropShadow_67_8729" result="shape"/>
<feColorMatrix in="SourceAlpha" type="matrix" values="0 0 0 0 0 0 0 0 0 0 0 0 0 0 0 0 0 0 127 0" result="hardAlpha"/>
<feOffset/>
<feGaussianBlur stdDeviation="57.3102"/>
<feComposite in2="hardAlpha" operator="arithmetic" k2="-1" k3="1"/>
<feColorMatrix type="matrix" values="0 0 0 0 1 0 0 0 0 1 0 0 0 0 1 0 0 0 0.5 0"/>
<feBlend mode="normal" in2="shape" result="effect2_innerShadow_67_8729"/>
<feColorMatrix in="SourceAlpha" type="matrix" values="0 0 0 0 0 0 0 0 0 0 0 0 0 0 0 0 0 0 127 0" result="hardAlpha"/>
<feOffset dy="-21.9689"/>
<feGaussianBlur stdDeviation="8.23834"/>
<feComposite in2="hardAlpha" operator="arithmetic" k2="-1" k3="1"/>
<feColorMatrix type="matrix" values="0 0 0 0 0 0 0 0 0 0 0 0 0 0 0 0 0 0 0.15 0"/>
<feBlend mode="normal" in2="effect2_innerShadow_67_8729" result="effect3_innerShadow_67_8729"/>
</filter>
<radialGradient id="paint0_radial_67_8729" cx="0" cy="0" r="1" gradientUnits="userSpaceOnUse" gradientTransform="translate(1011.1 140.099) rotate(128.902) scale(1116.51 1092.74)">
<stop stop-color="#9BC5FF"/>
<stop offset="0.259346" stop-color="#4BA7CE"/>
<stop offset="1" stop-color="#9945FE"/>
</radialGradient>
<radialGradient id="paint1_radial_67_8729" cx="0" cy="0" r="1" gradientUnits="userSpaceOnUse" gradientTransform="translate(866.149 333.732) rotate(139.39) scale(1046.1 1035.2)">
<stop stop-color="#9BC5FF"/>
<stop offset="0.259346" stop-color="#4BA7CE"/>
<stop offset="1" stop-color="#9945FE"/>
</radialGradient>
<radialGradient id="paint2_radial_67_8729" cx="0" cy="0" r="1" gradientUnits="userSpaceOnUse" gradientTransform="translate(675.55 105) rotate(126.664) scale(963.276 923.994)">
<stop stop-color="#9BC5FF"/>
<stop offset="0.259346" stop-color="#4BA7CE"/>
<stop offset="1" stop-color="#9945FE"/>
</radialGradient>
<clipPath id="clip0_67_8729">
<rect width="1120" height="1120" fill="white"/>
</clipPath>
</defs>
</svg>
